<?xml version="1.0" encoding="UTF-8"?>
<svg id="Loop_1" xmlns="http://www.w3.org/2000/svg" viewBox="0 0 60 160">
  <defs>
    <style>
      .loop-body { fill: #fff; }
      .loop-shadow { fill: #000; }
    </style>
  </defs>
  <g>
    <!-- Loop 1 Body -->
    <path class="loop-body" d="M126.45,227.89c.4-.8,4.68-3.18,5.67-4.38,4.58-4.78,7.16-12.64,7.66-19.11.6-7.26-.2-18.81-2.79-25.57-2.99-8.06-9.06-14.73-17.12-17.81-1.69-6.37-3.38-12.84-5.77-19.01-3.48-9.45-9.45-18.31-10.45-28.36l-6.17,1.09c-1.49,1.69,7.07,23.68,8.86,26.77-.6.5-4.88-4.78-5.67-5.47-1.19-1-3.08-3.18-4.48-1.99-4.98,4.38,2.49,9.65,4.88,12.94,2.39,3.28,9.16,12.44,9.25,16.12,0,1.49-4.18,5.97-5.08,8.26-1.99,5.17-.5,11.64.8,16.92.5,2.09,3.38,9.35,3.28,10.55,0,1.29-3.58,6.47-3.88,10.45-.4,5.87,1.49,4.98,2.39,8.06.6,2.19-.4,4.08,1.19,6.77,1.59,2.69,5.08,3.38,5.97,4.48.8,1,.5,5.47.4,6.97-.9,24.58-5.37,46.47-2.49,71.55,1,8.26,2.69,16.82,4.38,24.98.74,1.68,4.88.22,7.04.59,1.36-.25,2.77.33,3.06,2.09.6,3.6,2.71,6.95,3.26,10.54,0,.03.02.06.02.1,0,.02,0,.05,0,.07.02.11.03.23.05.34.02.06.03.13.05.19.02.03.04.07.06.1.01.01.02.02.03.03,0,0,.01,0,.02.01.05.02.11.03.17.04h4.9s.05-.02.08-.02c.04,0,.09,0,.13-.01,0,0,.01,0,.02,0,.07,0,.16-.03.23-.05.02,0,.04-.01.06-.02,0,0,0,0,0,0,.01,0,.03-.02.04-.02,0,0,.02-.02.03-.03.02-.03.03-.06.05-.08,0-.02.01-.04.02-.06.01-.04.02-.09.03-.14,0-.01,0-.03,0-.04,0-.06,0-.11,0-.17,0-.11,0-.22,0-.34,0-.17-.02-.34-.03-.52-1.89-9.82-6.17-18.47-8.58-28.14-6.17-25.18-4.38-53.64-2.59-79.41.1-2.09.4-7.86,1-9.25Z" transform="translate(-96, -113)"/>
    <!-- Loop 1 Shadow -->
    <path class="loop-shadow" d="M125.13,181.25c1.66-1.71,7.28,7.35,7.88,8.85,2.18,5.49,2.19,9.38-.67,14.59-1.04,1.9-6.35,8.81-8.32,5.38-.38-.66-2.4-6.48-2.41-7.09-.03-2.04,2.5-7.89,2.95-11.06.26-1.81.19-10.29.57-10.67Z" transform="translate(-96, -113)"/>
  </g>
</svg>