<?xml version="1.0" encoding="UTF-8"?>
<svg id="Loop_4" xmlns="http://www.w3.org/2000/svg" viewBox="280 115 40 230">
  <defs>
    <style>
      .loop-body { fill: #fff; }
      .loop-shadow { fill: #000; }
    </style>
  </defs>
  <g>
    <!-- Loop 4 Body -->
    <path class="loop-body" d="M303.37,319.29c.17.97,1.66,8.32,2.22,12.34.12.87.21,2.34.24,2.67.06.58,1.02.61,1.56.77.98.28,2.04.42,3.05.26.54-.09.96-.72,1.38-1.03,0-.23.02-.39-.11-1.37-1.13-7.44-2.18-13.44-3.79-21.04-.94-4.44-1.82-8.85-2.81-13.28l-2.59-14.24c-1.59-9.09-2.78-18.36-3.12-26.84,0-1.19-.3-7.96,0-8.26.1-.1,3.48.1,4.58-.1,8.66-1.59,7.76-16.42,7.36-22.99-.6-9.75-3.78-19.31-3.98-29.26-.2-7.86,1.19-15.72,1.49-23.39.3-7.66-.4-18.61-1-26.37-.5-6.67-3.28-15.82-10.35-18.21h.2c.1-7.36-.8-14.73.4-21.99-.2-.8-4.08-.5-4.98-.8-.1,4.48-.8,9.16-1,13.63-.1,1.59.4,8.76.2,9.25-.1.4-5.77,4.88-6.87,6.47-2.79,3.78-3.08,8.56-2.79,13.14,1,14.83,4.58,29.56,5.97,44.28,1,11.64,1.29,25.97,1,37.32-.3,11.34-2.39,25.48-1.49,36.72,0,.5.4,3.08.5,3.18.4.4,4.58.4,5.17-.4.6-.8-.3-2.49.7-2.49.1.7.5,1.39.5,2.19"/>
    <!-- Loop 4 Shadows -->
    <path class="loop-shadow" d="M292.73,138.31c1.27-.29,1.03,2.08,2.05,2.43,3.27,1.13,5.17-1.89,6.93,4.06,2.24,7.59,1.46,21.52-1.66,28.79-1.96,4.57-2.81,4.25-4.43-.24s-5.23-15.31-5.63-19.83c-.24-2.73-.56-14.45,2.75-15.22Z"/>
    <path class="loop-shadow" d="M304.82,218.33c1.95,2.36,2.75,19.58,1.07,22.53-1.79,3.16-4.3.77-4.82-2.06-.46-2.54,1.02-14.99,1.49-18.23.2-1.33.9-3.86,2.25-2.23Z"/>
    <path class="loop-body" d="M307.2,338.68h3.83c.06-.03.13-.04.2-.04.02,0,.05,0,.07,0,.09-.01.17-.04.25-.06.04-.02.08-.04.11-.07.03-.03.06-.06.09-.09.02-.02.03-.05.04-.08.01-.03.02-.07.03-.1,0-.03,0-.07,0-.1v-3.84h-.08c.03-.14.04-.28.04-.43-.09-2.02-.42-4.04-.73-6.04-.14-.92-.32-1.83-.54-2.73-.11-.67-.24-1.34-.41-2.01-.07-.28-.23-.54-.42-.76-.38-.92-1.37-1.61-2.4-1.28-.97.31-1.76,1.4-1.39,2.45.32.91.58,1.83.81,2.76,0,.03.01.07.02.1.01.17.05.34.11.49.13.61.25,1.22.35,1.84.07.44.13.87.2,1.31.03.21.06.42.09.63.02.14.04.28.06.42,0,.06.01.11.02.14,0,.04.01.09.02.17.02.14.03.28.05.42.02.21.05.42.07.63.05.49.08.98.11,1.47,0,.15.03.29.07.43h-2.02v3.99s.01.07.02.11c0,0,0-.02,0-.02,0,0,0,0,0,0,0-.02,0-.05,0-.07,0,.02,0,.05,0,.07,0,.04.02.07.02.11.02.02.05.04.07.06.02.02.05.03.08.05.08.03.15.05.23.07"/>
  </g>
</svg>