<?xml version="1.0" encoding="UTF-8"?>
<svg id="Loop_2" xmlns="http://www.w3.org/2000/svg" viewBox="0 0 50 320">
  <defs>
    <style>
      .loop-body { fill: #fff; }
      .loop-shadow { fill: #000; }
    </style>
  </defs>
  <g>
    <!-- Loop 2 Body -->
    <path class="loop-body" d="M22.56.4l-1,149.77c.2,1.39,6.17,2.99,7.96,3.98,15.13,9.06,7.76,32.34,6.97,46.17-1.29,23.58,6.67,47.87-7.46,69.06.8,12.44,1.99,24.57,2.39,37.01,0,1.99.39,8.04.28,9.77-.9,1-5.16.6-5.95,0-.12-1.14-.03-3.07-.11-3.97-.53-12.26.41-23.11-1.98-35.45-.1-.5-.3-1-.7-1.29-.7-.5-6.87.4-7.16.6-1.29,1.09,0,23.58-.7,26.87-.6,1.89-5.08,2.29-5.77-.5-1.59-6.87,2.49-24.98-.2-30.15-.7-1.39-2.19-2.19-3.18-4.28-3.08-6.67-2.19-14.03-2.19-21.1-.2-16.02,1-33.44,0-49.26-.8-12.94-10.15-33.14,4.08-42.59,1.59-1.09,8.66-3.28,8.76-3.78.6-1.49,0-13.53,0-16.32.2-22.79.6-45.68,1-68.56.4-22.09-.7-44.28.5-66.38h4.48v.4Z" transform="translate(-0, 0)"/>
    <!-- Loop 2 Shadows -->
    <path class="loop-shadow" d="M23.09,160.91c.12.05,1.95,1.53,2.07,1.66.81.87,5.1,7.12,5.56,8.03,1.98,3.95-2.75,15.09-3.85,19.51-4.46,17.93-6.1,35.34-5.66,53.8-.13,6.09,1.95,15.68.99,21.42-.38,2.30-6.43,8.07-6.99,3.55-.79-6.43.93-17.54,1.05-24.46.3-17.65-.44-35.97-4.25-53.22-2.12-9.61-9.16-21.76.57-29.35,2.84-2.22,2.31-.94,4.58-.86,1.19.04,5.25-.35,5.93-.09Z" transform="translate(-0, 0)"/>
    <path class="loop-shadow" d="M29.22,258.64c-1.27-.62-1.4-2.95-1.51-4.23-.96-11.43-1.15-41.8,1.85-52.11.22-.77.16-1.85,1.16-2.08.02,7.06.03,14.18.51,21.21.67,9.77,3.07,18.85.88,28.85-.6,2.73-2.8,5.36-2.89,8.35Z" transform="translate(-0, 0)"/>
    <!-- Small rectangle -->
    <rect class="loop-body" x="25.72" y="315.78" width="6" height="1.1" transform="translate(-0, 0)"/>
  </g>
</svg>