<?xml version="1.0" encoding="UTF-8"?>
<svg id="Loop_3" xmlns="http://www.w3.org/2000/svg" viewBox="175 115 65 230">
  <defs>
    <style>
      .loop-body { fill: #fff; }
      .loop-shadow { fill: #000; }
    </style>
  </defs>
  <g>
    <!-- Loop 3 Body -->
    <path class="loop-body" d="M206.89,271.07c-.06-1.87.23-3.49.8-5.46s1.17-4.1,1.66-6.25l3.58-13.67c.3-.5,3.88-1.19,4.98-1.59,11.94-5.08,11.25-18.31,5.67-28.06-1.39-2.29-7.56-9.55-7.66-11.25-.1-1.89,3.68-8.76,4.48-11.34,4.48-14.13-1.89-30.85-18.91-27.57-1.19-8.16.1-16.42,2.39-24.28.8-2.89,7.16-19.21,6.07-20.5v.2c-.2-.3-5.47.7-6.47,1.69-1.19,1.19-2.99,6.77-3.58,8.76-2.39,7.36-4.58,17.91-4.68,25.57-.1,3.48,1.59,9.06,1.29,11.84-.1.9-1.99,3.58-2.49,4.98-4.08,12.24,7.86,29.46,10.95,41.3-2.09,7.76-5.87,16.62-1.69,24.48,1,1.99,4.18,3.38,4.18,5.27-.18,2.86-6.36,21.21-6.54,24.57,0,0,0,.01,0,.02,0,0,0,.01,0,.02,0,.04,0,.08,0,.12,0,.09,0,.19,0,.28-.01.09-.01.18,0,.27,0,.09,0,.18,0,.26-.02.64-.07,1.27.27,1.86.67,1.15,2.11,1.22,3.29,1.18.43-.01.86-.16,1.2-.42.26-.09.5-.24.69-.44.37-.4.51-.87.55-1.42,0-.01,0-.03,0-.05"/>
    <!-- Loop 3 Shadows -->
    <path class="loop-shadow" d="M215.47,213.78c.51.29,5.94,8.64,6.47,9.75,2.04,4.3,2.42,7.84-.29,12.01-.91,1.4-5.24,5.01-6.62,3.63-.47-.47-.86-11.38-1.06-13.17-.24-2.18-1.42-5.03-1.45-7.08-.02-1.33,1.02-6.22,2.94-5.14Z"/>
    <path class="loop-shadow" d="M214.53,195.72c-1.36.95-3.07-2.31-3.5-3.23-1.05-2.26-6.33-18.08-5.94-19.42.62-2.16,5.95-.2,7.42.97,3.84,3.09,5.59,8.07,4.99,12.90-.12.93-2.58,8.51-2.96,8.78Z"/>
    <path class="loop-body" d="M211.09,244.2c-.38-1.85-1.53-3.37-2.66-4.83-.66-.85-2.12-.69-2.81,0-.84.84-.66,1.96,0,2.81.95,1.23,1.9,2.55,1.53,4.16-.44,1.91-1.14,3.8-1.74,5.67-.58,1.82-1.22,3.62-1.69,5.47-.07.27-.14.57-.22.87-.19.51-.35,1.03-.46,1.55-.33.87-.64,1.75-.91,2.64-.79,2.58-1.17,5.29-1.26,7.99,0,.24.04.47.13.69h-.1v2.31s0,.03,0,.05c0,.03,0,.07,0,.10,0,.06.02.11.04.16.02.03.04.07.06.1.01.01.03.03.04.04.02.02.04.04.07.05.04.01.09.02.13.04h5.3c.06,0,.11-.03.16-.04.03-.03.06-.05.09-.07.04-.09.06-.18.09-.28v-2.47h-2.19c.08-.22.14-.45.15-.69.08-2.35.44-4.65,1.12-6.91,1.04-.43,1.76-1.74,1.08-2.86,0-.1,0-.20.02-.31.44-1.17.91-2.33,1.37-3.49.09-.16.18-.33.28-.49.03-.04.06-.09.09-.13.10-.08.20-.25.28-.33.68-.73.79-1.97.08-2.72.34-1.06.68-2.11,1.01-3.18.59-1.93,1.34-3.87.92-5.92Z"/>
  </g>
</svg>