<?xml version="1.0" encoding="UTF-8"?>
<svg id="Loop_5" xmlns="http://www.w3.org/2000/svg" viewBox="360 140 45 180">
  <defs>
    <style>
      .loop-body { fill: #fff; }
      .loop-shadow { fill: #000; }
    </style>
  </defs>
  <g>
    <!-- Loop 5 Body -->
    <path class="loop-body" d="M403.39,256.04c-1.19-9.65-6.07-22.69-6.37-31.94-.1-2.89,1-5.67,1-8.46.5-13.04.5-26.27.5-39.31,0-7.16,1.49-12.74-3.08-19.31-6.77-9.75-21.89-5.27-25.67,5.08-6.07,16.72,3.08,32.24,9.25,47.17.6,1.29,2.29,3.48,2.49,4.48.5,2.09-.4,4.58-.4,6.87.1,2.39,1.09,9.55,2.79,11.15,2.49,2.39,4.28.3,5.17,5.27,1.86,11.04,0,23.29-2.12,34.25-.05.11-.11.22-.14.34-.14.56-.29,1.13-.43,1.69-.03.09-.03.17-.05.26-.10.15-.18.31-.25.5-1.14,3.44-2.37,6.86-3.39,10.33-.96,3.25-1.53,6.59-1.81,9.96-.04.07-.08.15-.08.25-.02.70-.04,1.40-.05,2.10,0,.65.02,1.32.31,1.91.29.61.87.87,1.52.91.26.01.52,0,.79,0,.05,0,.09.02.14.03.37.04.74-.03,1.11-.08.68-.08,1.37-.12,1.97-.49.10-.14.19-.29.29-.43.08-.12.16-.25.24-.38,0-.02,0-.04,0-.05.08-.80.19-1.58.34-2.35.55-5.34,2.63-10.22,4.10-15.27.15-.54.29-1.08.41-1.63.17-.97.35-1.95.51-2.92l.41-2.46c.92-5.74,1.69-11.52,2.56-17.26,1.89-.3.4,2.39,2.09,3.18.8.3,5.67.5,5.87.3l.1-.1c.2-.2-.1-2.89-.1-3.58Z"/>
    <!-- Loop 5 Shadow -->
    <path class="loop-shadow" d="M378.56,161.95c3.07-3.18,7.79-3.91,11.08-.69,4.51,4.41,5.02,15.2,4.08,21.09-.42,2.65-4.36,17.89-6.61,18.37-.85.18-.98-.7-1.33-1.15-4.15-5.39-11.76-23.87-10.77-30.43.28-1.87,2.24-5.83,3.55-7.19Z"/>
  </g>
</svg>